# xmcd
#
# Track frame offsets:
#	150
#	25900
#	43292
#	64491
#	83037
#	93592
#	108670
#	123835
#	142156
#	160873
#	181907
#	199697
#	219152
#	236503
#
# Disc length: 3251 seconds
#
# Revision: 0
# Processed by: cddbd v1.5.2PL0 Copyright (c) Steve Scherf et al.
# Submitted via: audiograbber 1.83.01
#
DISCID=c60cb10e
DTITLE=Lee Ann Womack - The Lonely, The Lonesome and The Gone
DYEAR=2017
DGENRE=Country
TTITLE0=All the Trouble
TTITLE1=The Lonely, The Lonesome and The Gone
TTITLE2=He Called Me Baby
TTITLE3=Hollywood
TTITLE4=End of the End of the World
TTITLE5=Bottom of the Barrel
TTITLE6=Shine On Rainy Day
TTITLE7=Mama Lost Her Smile
TTITLE8=Wicked
TTITLE9=Long Black Veil
TTITLE10=Someone Else's Heartache
TTITLE11=Sunday
TTITLE12=Talking Behind Your Back
TTITLE13=Take the Devil out of Me
EXTD=
EXTT0=
EXTT1=
EXTT2=
EXTT3=
EXTT4=
EXTT5=
EXTT6=
EXTT7=
EXTT8=
EXTT9=
EXTT10=
EXTT11=
EXTT12=
EXTT13=
PLAYORDER=
